<?xml version="1.0"?>

<svg xmlns="http://www.w3.org/2000/svg" xmlns:lc="https://librecad.org" xmlns:xlink="http://www.w3.org/1999/xlink" width="69.32230587mm" height="47.31013045mm" viewBox="0 0 69.32230587 47.31013045">
    <g lc:layername="0" lc:is_locked="false" lc:is_construction="false" fill="none" stroke="black" stroke-width="1">
        <circle cx="8.62046982" cy="38.68966063" r="8.62046982"/>
        <line x1="12.93070474" y1="46.15520649" x2="65.01207137" y2="16.08601545"/>
        <line x1="56.39160154" y1="1.15492373" x2="4.31023491" y2="31.22411477"/>
        <path d="M65.01207205,16.08601505 A8.62046982,8.62046982 0 0,0 56.39160154,1.15492373 "/>
        <path d="M60.45180193,18.71888824 A8.62046982,8.62046982 0 0,0 51.83133141,3.78779691 "/>
        <path d="M55.8915318,21.35176142 A8.62046982,8.62046982 0 0,0 47.27106129,6.4206701 "/>
        <path d="M51.33126167,23.98463461 A8.62046982,8.62046982 0 0,0 42.71079116,9.05354328 "/>
        <path d="M46.77099154,26.61750779 A8.62046982,8.62046982 0 0,0 38.15052103,11.68641647 "/>
        <path d="M42.21072141,29.25038098 A8.62046982,8.62046982 0 0,0 33.5902509,14.31928966 "/>
        <path d="M37.65045129,31.88325417 A8.62046982,8.62046982 0 0,0 29.02998077,16.95216284 "/>
        <path d="M33.09018116,34.51612735 A8.62046982,8.62046982 0 0,0 24.46971065,19.58503603 "/>
        <path d="M28.52991103,37.14900054 A8.62046982,8.62046982 0 0,0 19.90944052,22.21790921 "/>
        <path d="M23.9696409,39.78187372 A8.62046982,8.62046982 0 0,0 15.34917039,24.8507824 "/>
        <path d="M19.40937077,42.41474691 A8.62046982,8.62046982 0 0,0 10.78890026,27.48365559 "/>
        <path d="M14.84910065,45.0476201 A8.62046982,8.62046982 0 0,0 6.22863013,30.11652877 "/>
    </g>
</svg>
