<?xml version="1.0" encoding="utf-8"?>
<!-- Uploaded to: SVG Repo, www.svgrepo.com, Generator: SVG Repo Mixer Tools -->
<svg width="800px" height="800px" viewBox="0 0 1024 1024" class="icon"  version="1.1" xmlns="http://www.w3.org/2000/svg"><path d="M736.5 231.8c0-61.9 50.4-112.1 112.2-112.1 62 0 112.2 50.3 112.2 112.1v561.1c0 61.9-50.4 112.1-112.2 112.1-62 0-112.2-50.3-112.2-112.1V231.8zM484.1 259.9c0 15.6-1.5 28 14 28 15.6 0 14-12.6 14-28 0-56.1 69-84.1 98.2-84.1 46.5 0 98.2 37.7 98.2 84.1v504.8c0 46.5-51.7 84.1-98.2 84.1-29.2 0-98.2-28-98.2-84.1 0-15.6 1.5-28-14-28-15.6 0-14 12.6-14 28 0 56.1-69 84.1-98.2 84.1s-98.2-28-98.2-84.1c0-15.6 1.5-28-14-28-15.6 0-14 12.6-14 28 0 56.1-69 84.1-98.2 84.1-46.5 0-98.2-37.7-98.2-84.1V259.9c0-46.5 51.7-84.1 98.2-84.1 29.2 0 98.2 28 98.2 84.1 0 15.6-1.5 28 14 28 15.6 0 14-12.6 14-28 0-56.1 69-84.1 98.2-84.1 29.2 0 98.2 28 98.2 84.1z" fill="#5E676F" /><path d="M624.3 234.3v555.9c15.2-5.2 28-17.5 28-25.6V259.9c0-8.1-12.8-20.3-28-25.6zM147.5 790.3v-556c-15.2 5.2-28 17.5-28 25.6v504.8c0 8.1 12.8 20.3 28 25.6zM259.7 681.8v-339c-22.6-4.1-41.5-18.4-50.5-41-5.3-13.3-5.8-20.1-5.6-38.6V260c0-8-12.8-20.3-28-25.6v555.9c15.2-5.2 28-17.5 28-25.6v-3.3c-0.2-18.4 0.3-25.2 5.6-38.6 9.1-22.6 27.9-36.8 50.5-41zM287.7 681.8c22.6 4.1 41.5 18.4 50.5 41 5.3 13.3 5.8 20.1 5.6 38.6v3.2c0 8.1 12.8 20.3 28 25.6V234.3c-15.2 5.2-28 17.5-28 25.6v3.3c0.2 18.4-0.3 25.2-5.6 38.6-9 22.6-27.9 36.8-50.5 40.9v339.1zM512.1 681.8c22.6 4.1 41.5 18.4 50.5 41.1 5.3 13.3 5.8 20.1 5.6 38.6v3.2c0 8.1 12.8 20.3 28 25.6v-556c-15.2 5.2-28 17.5-28 25.6v3.3c0.2 18.4-0.3 25.2-5.6 38.6-9 22.6-27.9 36.8-50.5 40.9v339.1zM484.1 681.8v-339c-22.6-4.1-41.5-18.4-50.5-41-5.3-13.3-5.8-20.1-5.6-38.6V260c0-8-12.8-20.3-28-25.6v555.9c15.2-5.2 28-17.5 28-25.6v-3.3c-0.2-18.4 0.3-25.2 5.6-38.6 9-22.6 27.9-36.8 50.5-41zM792.6 231.8v561.1c0 30.8 25.2 56 56.1 56 30.9 0 56.1-25.1 56.1-56V231.8c0-30.8-25.2-56-56.1-56-31 0-56.1 25.1-56.1 56z" fill="#FFFFFF" /><path d="M848.7 736.7c-15.5 0-28-12.6-28-28s12.6-28 28-28c15.5 0 28 12.6 28 28s-12.6 28-28 28zM848.7 624.5c-15.5 0-28-12.6-28-28s12.6-28 28-28c15.5 0 28 12.6 28 28s-12.6 28-28 28zM848.7 512.3c-15.5 0-28-12.6-28-28 0-15.5 12.6-28 28-28 15.5 0 28 12.6 28 28s-12.6 28-28 28zM848.7 344c-15.5 0-28-12.6-28-28 0-15.5 12.6-28 28-28 15.5 0 28 12.6 28 28 0 15.5-12.6 28-28 28z" fill="#5E676F" /></svg>