<?xml version="1.0" encoding="utf-8"?>
<!-- Uploaded to: SVG Repo, www.svgrepo.com, Generator: SVG Repo Mixer Tools -->
<svg width="800px" height="800px" viewBox="0 -8.5 1041 1041" class="icon"  version="1.1" xmlns="http://www.w3.org/2000/svg"><path d="M95.164551 614.056623h867.689772v245.723209A132.948311 132.948311 0 0 1 829.906012 992.728144H228.100599A132.948311 132.948311 0 0 1 95.164551 859.779832V614.056623z" fill="#178E3B" /><path d="M87.757413 631.323593h875.09691v73.151617H87.757413zM98.966228 750.41418h843.187353v47.557748H98.966228z" fill="#2FA65B" /><path d="M1015.820263 640.557988H25.753293a25.753293 25.753293 0 0 1-25.753293-25.753293V388.077605a25.753293 25.753293 0 0 1 25.753293-25.753294h990.06697a25.753293 25.753293 0 0 1 25.753294 25.753294v226.72709a25.753293 25.753293 0 0 1-25.753294 25.753293zM51.506587 589.051401h938.560383V413.830898H51.506587z" fill="#203529" /><path d="M822.498874 1024H220.742515A158.873293 158.873293 0 0 1 62.00412 865.286132V619.562922a25.753293 25.753293 0 0 1 25.753293-25.753293H955.447186a25.753293 25.753293 0 0 1 25.753293 25.753293v245.72321A158.873293 158.873293 0 0 1 822.498874 1024zM113.510707 645.316216v219.969916A107.317653 107.317653 0 0 0 220.742515 972.493413h601.756359a107.317653 107.317653 0 0 0 107.195018-107.195018V645.316216zM517.751569 401.015569a25.753293 25.753293 0 0 1-18.211258-43.964551c50.844359-50.844359-3.679042-150.06812-4.243161-151.073725a25.753293 25.753293 0 0 1 44.896575-25.250491 293.207377 293.207377 0 0 1 27.310754 73.470467c12.704958 57.785485 1.802731 105.944144-31.529389 139.264a25.679713 25.679713 0 0 1-18.223521 7.5543z" fill="#203529" /><path d="M436.395689 255.264192h-1.312192a107.09691 107.09691 0 0 1-75.849581-32.473677c-10.497533-10.755066-26.979641-34.153772-48.379401-112.909796-11.196551-41.156216-18.39521-77.676838-18.640479-79.209773A25.753293 25.753293 0 0 1 323.007617 0.60091c1.532934 0.331114 37.869605 8.326898 78.74376 20.504527 78.228695 23.300599 101.23497 40.285509 111.732503 51.028312a107.808192 107.808192 0 0 1-77.088191 183.142706z m-85.059449-194.866587c13.391713 56.49782 31.63976 112.971114 44.737149 126.399617a56.301605 56.301605 0 1 0 80.558755-78.682444C463.559281 94.698539 407.490683 75.113772 351.33624 60.397605z" fill="#203529" /><path d="M614.571689 271.427449a108.445892 108.445892 0 0 1-27.359809-3.53188 107.808192 107.808192 0 0 1-27.372072-197.319282c12.962491-7.603353 39.635545-17.929198 121.224432-19.793245 42.640096-0.968814 79.810683 0.895234 81.368143 0.968814a25.753293 25.753293 0 0 1 21.779928 37.121533c-0.686754 1.398036-17.168862 34.754683-38.850682 71.508312C703.923353 230.712719 681.849102 248.948503 668.947928 256.56412a107.170491 107.170491 0 0 1-54.376239 14.863329z m93.741988-169.493461c-54.351713 0-107.268599 4.181844-122.413988 13.072862A56.301605 56.301605 0 0 0 642.875784 212.158084c16.175521-9.491928 48.661461-59.171257 76.462755-110.138252q-5.506299-0.085844-11.024862-0.085844zM1003.998275 565.775329H54.020599a12.876647 12.876647 0 1 1 0-25.753293h949.977676a12.876647 12.876647 0 0 1 0 25.753293zM629.116168 514.317796H435.524982a12.876647 12.876647 0 0 1 0-25.753293H629.116168a12.876647 12.876647 0 0 1 0 25.753293zM984.511617 466.011976H34.53394a12.876647 12.876647 0 0 1 0-25.753293H984.511617a12.876647 12.876647 0 0 1 0 25.753293zM255.570778 412.678132a25.753293 25.753293 0 0 1-25.753293-25.753294 64.420024 64.420024 0 1 0-128.840048 0 25.753293 25.753293 0 0 1-51.506587 0 115.926611 115.926611 0 1 1 231.853222 0 25.753293 25.753293 0 0 1-25.753294 25.753294z" fill="#203529" /><path d="M457.120958 407.147305a25.753293 25.753293 0 0 1-25.753293-25.753293 64.420024 64.420024 0 1 0-128.840048 0 25.753293 25.753293 0 0 1-51.506587 0 115.926611 115.926611 0 1 1 231.853221 0 25.753293 25.753293 0 0 1-25.753293 25.753293zM883.117222 400.24297a25.753293 25.753293 0 0 1-25.753294-25.753293 64.420024 64.420024 0 1 0-128.840048 0 25.753293 25.753293 0 1 1-51.506587 0 115.926611 115.926611 0 1 1 231.853222 0 25.753293 25.753293 0 0 1-25.753293 25.753293zM478.937677 199.195593a12.839856 12.839856 0 0 1-9.148551-3.81394L430.447904 155.61121a12.876647 12.876647 0 0 1 18.297102-18.11315L488.086228 177.25624a12.876647 12.876647 0 0 1-9.148551 21.939353zM567.001677 213.077844a12.876647 12.876647 0 0 1-7.517509-23.300598L634.205509 136.124551a12.876647 12.876647 0 0 1 15.022754 20.847904l-74.721341 53.640431a12.827593 12.827593 0 0 1-7.505245 2.464958z" fill="#203529" /><path d="M905.915018 381.075162a12.876647 12.876647 0 0 1-12.876647-12.876647V245.637365a12.876647 12.876647 0 1 1 25.753294 0V332.34012l36.115928-43.792863a12.876647 12.876647 0 0 1 19.866826 16.384l-58.86467 71.446994a12.876647 12.876647 0 0 1-9.994731 4.696911z" fill="#203529" /></svg>