<?xml version='1.0' encoding='UTF-8'?>
<svg xmlns="http://www.w3.org/2000/svg" fill="#000000" width="800px" height="800px" viewBox="0 0 8 8">
  <style>
                svg { filter: drop-shadow(0 0 0.5px white); }
                path, circle, ellipse, rect, polygon, polyline, line { 
                    stroke-width: 1.2; 
                    filter: drop-shadow(-0.5px -0.5px 0 white) drop-shadow(0.5px -0.5px 0 white) drop-shadow(-0.5px 0.5px 0 white) drop-shadow(0.5px 0.5px 0 white);
                }
            </style><path d="M.75 0c-.41 0-.75.34-.75.75v5.5c0 .41.34.75.75.75h6.5c.41 0 .75-.34.75-.75v-5.5c0-.41-.34-.75-.75-.75h-6.5zm.25 1h1v1h-1v-1zm2 0h4v1h-4v-1zm-2 2h1v1h-1v-1zm2 0h4v1h-4v-1zm-2 2h1v1h-1v-1zm2 0h4v1h-4v-1z" />
</svg>